DataType=double
version=3
OpenSimVersion=4.5.2-2025-05-03-6a4c6ec41
endheader
time	q	/jointset/head_joint/q/speed
2.499999999999836	-0.387905427973607	-0.9763785648149801
2.500999999999836	-0.3888807675089495	-0.9742969548172096
2.501999999999835	-0.3898541163081427	-0.9723971011790171
2.502999999999835	-0.3908256485576523	-0.9706638634736363
2.503999999999835	-0.3917955223311964	-0.969080156692023
2.504999999999835	-0.3927638799034402	-0.967631467796642
2.505999999999835	-0.3937353245347781	-0.9752542650771443
2.506999999999835	-0.3947084153856611	-0.970923902333212
2.507999999999835	-0.39567877677537	-0.9697953540688748
2.508999999999835	-0.3966477059315722	-0.9680594419441414
2.509999999999835	-0.3976150620747431	-0.9666493351384101
2.510999999999834	-0.3985810458490996	-0.9653147107164018
2.511999999999834	-0.399545756340371	-0.9641027750069582
2.512999999999834	-0.4005093034234116	-0.9629878998934944
2.513999999999834	-0.401471781138624	-0.9619640446469202
2.514999999999834	-0.4024332756594837	-0.9610215161707679
2.515999999999834	-0.4033938644824701	-0.9601526536014647
2.516999999999834	-0.4043536176928832	-0.9593502954712311
2.517999999999834	-0.4053125986054467	-0.9586080621195814
2.518999999999834	-0.4062708644654903	-0.9579201944422131
2.519999999999833	-0.407228467048864	-0.9572815126028561
2.520999999999833	-0.4081854532096487	-0.9566873529187837
2.521999999999833	-0.4091418653711538	-0.9561335175454216
2.522999999999833	-0.4100977419683031	-0.955616227570814
2.523999999999833	-0.4110531178456633	-0.9551320812059569
2.524999999999833	-0.4120080246157026	-0.954678016054754
2.525999999999833	-0.4129624909812185	-0.954251275182278
2.526999999999833	-0.4139165430255267	-0.9538493765698567
2.527999999999833	-0.4148702044736337	-0.9534700856262132
2.528999999999832	-0.4158234969272944	-0.9531113904470824
2.529999999999832	-0.4167719651949125	-0.9438217323383292
2.530999999999832	-0.4177127089929248	-0.9376624804419967
2.531999999999832	-0.4186517815295205	-0.9404792169241278
2.532999999999832	-0.4195924750549889	-0.9409044537741974
2.533999999999832	-0.4205338263112892	-0.9417946776439743
2.534999999999832	-0.421475950075881	-0.9424494690075114
2.535999999999832	-0.4224187045652172	-0.9430561262979983
2.536999999999832	-0.4233620237366138	-0.9435788325365536
2.537999999999832	-0.4243058330646838	-0.9440364393257473
2.538999999999831	-0.4252500695478368	-0.9444331426144583
2.539999999999831	-0.4261946757662289	-0.9447759099265384
2.540999999999831	-0.4271396005198887	-0.9450702134603284
2.541999999999831	-0.4280803230250969	-0.9363714295177886
2.542999999999831	-0.4290138839692011	-0.9307471183166867
2.543999999999831	-0.4299418085373785	-0.9250986992450742
2.544999999999831	-0.4308644228898786	-0.9201267073542923
2.545999999999831	-0.4317867574924391	-0.9245392017636713
2.546999999999831	-0.4327121655798762	-0.9262736675320434
2.54799999999983	-0.4336394934411201	-0.9283787439365968
2.54899999999983	-0.4345687457533333	-0.9301225640254722
2.54999999999983	-0.4354996663014522	-0.9317152112280178
2.55099999999983	-0.4364320898721971	-0.9331286053572004
2.55199999999983	-0.4373658517155323	-0.9343917530854877
2.55299999999983	-0.4383008078536577	-0.9355171921361112
2.55399999999983	-0.4392323530332236	-0.927569849570509
2.55499999999983	-0.4401574521459644	-0.9226250828781746
2.55599999999983	-0.441077562088558	-0.9175915284587804
2.556999999999829	-0.4419929475640403	-0.9131761668767243
2.557999999999829	-0.4429041088287275	-0.909143123292348
2.558999999999829	-0.443815905939737	-0.9144478586619598
2.559999999999829	-0.4447316205071579	-0.9169780236077371
2.560999999999829	-0.4456500139089094	-0.9198055192337248
2.561999999999829	-0.4465710194972542	-0.9222023889562254
2.562999999999829	-0.4474943155749261	-0.9243864912059601
2.563999999999829	-0.4484196783008695	-0.9263356796240937
2.564999999999829	-0.4493468900673891	-0.9280845672670595
2.565999999999828	-0.4502712844501173	-0.920700923488742
2.566999999999828	-0.45118976999747	-0.9162669188973041
2.567999999999828	-0.4521037532033947	-0.9116962580117038
2.568999999999828	-0.4530134533159003	-0.9077007486441871
2.569999999999828	-0.4539193296889616	-0.9040487940669064
2.570999999999828	-0.454821730668148	-0.9007499745913595
2.571999999999828	-0.4557209864517439	-0.8977584154032274
2.572999999999828	-0.4566173904669354	-0.8950464492516677
2.573999999999828	-0.4575156830356059	-0.9015355170895685
2.574999999999827	-0.4584190213852873	-0.9051379948761163
2.575999999999827	-0.4593260590838897	-0.9089342033075568
2.576999999999827	-0.4602366314011869	-0.9122072212429183
2.577999999999827	-0.4611458537271866	-0.9062342269170967
2.578999999999827	-0.4620505046578657	-0.9030644481460519
2.579999999999827	-0.462951857110688	-0.8996372842486586
2.580999999999827	-0.4638500142505727	-0.8966738349398538
2.581999999999827	-0.4647453299046577	-0.8939543240612106
2.582999999999827	-0.4656380576891179	-0.8914981062001593
2.583999999999826	-0.4665284424664751	-0.8892683194946182
2.584999999999826	-0.4674167008635038	-0.8872453544137455
2.585999999999826	-0.4683030291814992	-0.8854081696015442
2.586999999999826	-0.469187604155558	-0.883738674087325
2.587999999999826	-0.4700750601095187	-0.8911701206931677
2.588999999999826	-0.4709684590955395	-0.8956247187774296
2.589999999999826	-0.4718663689477401	-0.9001918386714217
2.590999999999826	-0.4727640728924967	-0.8952129060523343
2.591999999999826	-0.473658173481518	-0.8929851412585293
2.592999999999825	-0.4745498669326533	-0.8903986401380052
2.593999999999825	-0.4754391669293141	-0.8881982421098766
2.594999999999825	-0.4763263518572444	-0.8861685114951438
2.595999999999825	-0.4772116061425371	-0.8843369650006646
2.596999999999825	-0.4780951126798307	-0.882673023017377
2.597999999999825	-0.4789770322291468	-0.8811629959989068
2.598999999999825	-0.4798575108158271	-0.8797911041842882
2.599999999999825	-0.4807366799058801	-0.8785440087196186
2.600999999999825	-0.4816146581846785	-0.877409487232667
2.601999999999824	-0.4824915527526423	-0.8763765922315739
2.602999999999824	-0.4833674603026315	-0.8754354561248727
2.603999999999824	-0.4842424681542923	-0.8745772001098852
2.604999999999824	-0.485116655191303	-0.8737938310830989
2.605999999999824	-0.4859900927033196	-0.8730781541307991
2.606999999999824	-0.4868628451441294	-0.8724236924529287
2.607999999999824	-0.4877349708138957	-0.8718246156238385
2.608999999999824	-0.4886065224732098	-0.8712756749445694
2.609999999999824	-0.4894775478957373	-0.8707721452804211
2.610999999999823	-0.4903480903656078	-0.8703097727095641
2.611999999999823	-0.4912181891250705	-0.8698847274080228
2.612999999999823	-0.4920878797773914	-0.8694935612457914
2.613999999999823	-0.4929571946494661	-0.8691331696233744
2.614999999999823	-0.4938261631181767	-0.8688007571246124
2.615999999999823	-0.4946903370221651	-0.8595440581867418
2.616999999999823	-0.495546822433966	-0.8534238007511838
2.617999999999823	-0.4963972034264931	-0.847335242126781
2.618999999999823	-0.4972463340770932	-0.8509231225751236
2.619999999999822	-0.4980977359944466	-0.8518777691369734
2.620999999999822	-0.498950325289979	-0.8532978761941593
2.621999999999822	-0.4998041899588847	-0.8544285128485846
2.622999999999822	-0.5006591437058086	-0.8554760298465323
2.623999999999822	-0.5015150855630394	-0.8564047314343407
2.624999999999822	-0.5023719083229169	-0.8572378334881832
2.625999999999822	-0.5032295199155487	-0.8579823956149226
2.626999999999822	-0.5040878367059842	-0.8586482280622039
2.627999999999822	-0.5049467839462807	-0.8592432945658834
2.628999999999821	-0.505801819679485	-0.8508252287425471
2.629999999999821	-0.506649965559451	-0.8454636131812502
2.630999999999821	-0.5074927296590843	-0.8400616879532228
2.631999999999821	-0.5083304227557679	-0.8353216260656254
2.632999999999821	-0.5091635866065329	-0.831003213016863
2.633999999999821	-0.5099926437661007	-0.8271082591014596
2.634999999999821	-0.5108224661438407	-0.8325336480555231
2.635999999999821	-0.5116563256116867	-0.8351824267901923
2.636999999999821	-0.5124929799233698	-0.8381233274870746
2.63799999999982	-0.5133323579239685	-0.840629796637816
2.63899999999982	-0.5141741342098864	-0.842919891272378
2.63999999999982	-0.5150180815551171	-0.8449719092012353
2.64099999999982	-0.5158639793555201	-0.8468207963230023
2.64199999999982	-0.5167071585142925	-0.8395346366269657
2.64299999999982	-0.51754452520189	-0.8351958752255644
2.64399999999982	-0.5183774837950861	-0.8307184642514895
2.64499999999982	-0.5192062516596923	-0.8268144337109458
2.64599999999982	-0.5200312864783807	-0.8232523865005529
2.646999999999819	-0.5208529351148565	-0.820042082170624
2.647999999999819	-0.5216715264556181	-0.8171378068206848
2.648999999999819	-0.5224873527687343	-0.8145120376195437
2.649999999999819	-0.5233006784721673	-0.8121365972814631
2.650999999999819	-0.5241117416399949	-0.8099869754148038
2.651999999999819	-0.5249252318361585	-0.8169906469864522
2.652999999999819	-0.5257442608656325	-0.8210646244939813
2.653999999999819	-0.5265674413783212	-0.8252936006211994
2.654999999999819	-0.5273945718541831	-0.8289645387527903
2.655999999999819	-0.5282207345894867	-0.8233581241470365
2.656999999999818	-0.5290426784141922	-0.8205267332376155
2.657999999999818	-0.5298616494708348	-0.8174125994533996
2.658999999999818	-0.530677726841618	-0.8147393726697545
2.659999999999818	-0.5314912426934483	-0.8122895715602525
2.660999999999818	-0.5323024311621873	-0.8100846156954945
2.661999999999818	-0.5331115195916065	-0.8080895013491648
2.662999999999818	-0.5339187088547893	-0.8062862909626315
2.663999999999818	-0.5347241810875437	-0.8046554476083618
2.664999999999818	-0.535528100288518	-0.8031802339571225
2.665999999999817	-0.5363306144490396	-0.8018453727513185
2.666999999999817	-0.5371318570726152	-0.8006371656574107
2.667999999999817	-0.5379319486418157	-0.7995432691819143
2.668999999999817	-0.5387265230315081	-0.7896028265611482
2.669999999999817	-0.5395172350687997	-0.7918185786898958
2.670999999999817	-0.5403086536078507	-0.7910158289605047
2.671999999999817	-0.5410996558596044	-0.790986006766052
